<svg width="14" height="15" viewBox="0 0 14 15" fill="none" xmlns="http://www.w3.org/2000/svg">
<path d="M13.1016 6.58221H3.0659L7.45032 2.07991C7.80072 1.72009 7.80072 1.12962 7.45032 0.769809C7.3672 0.684281 7.26847 0.616426 7.15979 0.570128C7.0511 0.523831 6.93458 0.5 6.81692 0.5C6.69925 0.5 6.58274 0.523831 6.47405 0.570128C6.36536 0.616426 6.26663 0.684281 6.18351 0.769809L0.262746 6.84976C0.179456 6.93511 0.113378 7.0365 0.0682924 7.14811C0.0232071 7.25972 0 7.37936 0 7.5002C0 7.62103 0.0232071 7.74067 0.0682924 7.85228C0.113378 7.96389 0.179456 8.06528 0.262746 8.15063L6.18351 14.2306C6.26669 14.316 6.36544 14.3838 6.47412 14.43C6.5828 14.4762 6.69928 14.5 6.81692 14.5C6.93455 14.5 7.05103 14.4762 7.15971 14.43C7.26839 14.3838 7.36714 14.316 7.45032 14.2306C7.5335 14.1452 7.59948 14.0438 7.6445 13.9322C7.68952 13.8206 7.71269 13.7009 7.71269 13.5801C7.71269 13.4593 7.68952 13.3397 7.6445 13.2281C7.59948 13.1165 7.5335 13.0151 7.45032 12.9297L3.0659 8.42741H13.1016C13.5957 8.42741 14 8.01224 14 7.50481C14 6.99738 13.5957 6.58221 13.1016 6.58221Z" fill="white"/>
</svg>
