<svg xmlns="http://www.w3.org/2000/svg" xmlns:xlink="http://www.w3.org/1999/xlink" width="25" height="25" viewBox="0 0 25 25"><defs><style>.a.b{clip-path:url(#a);}</style><clipPath id="a"><rect class="a" width="25" height="25" transform="translate(195 23)"/></clipPath></defs><g class="b" transform="translate(-195 -23)"><g transform="translate(195 23)"><path class="c" d="M13.623,17.773a1.955,1.955,0,0,0,1.953,1.953h2.295a1.955,1.955,0,0,0,1.953-1.953V15.479a1.955,1.955,0,0,0-1.953-1.953H15.576a1.955,1.955,0,0,0-1.953,1.953Zm1.953-2.295h2.295v2.295h-2.3Z"/><circle class="c" cx="0.977" cy="0.977" r="0.977" transform="translate(17.871 9.277)"/><circle class="c" cx="0.977" cy="0.977" r="0.977" transform="translate(13.623 9.277)"/><path class="c" d="M24.023,17.188A.977.977,0,0,0,25,16.211V5.859a3.911,3.911,0,0,0-3.906-3.906h-1.27V.977a.977.977,0,0,0-1.953,0v.977H13.428V.977a.977.977,0,0,0-1.953,0v.977H7.08V.977a.977.977,0,0,0-1.953,0v.977H3.906A3.911,3.911,0,0,0,0,5.859V21.094A3.911,3.911,0,0,0,3.906,25H21.094A3.911,3.911,0,0,0,25,21.094a.977.977,0,0,0-1.953,0,1.955,1.955,0,0,1-1.953,1.953H3.906a1.955,1.955,0,0,1-1.953-1.953V5.859A1.955,1.955,0,0,1,3.906,3.906H5.127v.977a.977.977,0,0,0,1.953,0V3.906h4.395v.977a.977.977,0,0,0,1.953,0V3.906h4.443v.977a.977.977,0,0,0,1.953,0V3.906h1.27a1.955,1.955,0,0,1,1.953,1.953V16.211A.977.977,0,0,0,24.023,17.188Z"/><circle class="c" cx="0.977" cy="0.977" r="0.977" transform="translate(5.127 17.773)"/><circle class="c" cx="0.977" cy="0.977" r="0.977" transform="translate(5.127 9.277)"/><circle class="c" cx="0.977" cy="0.977" r="0.977" transform="translate(5.127 13.525)"/><circle class="c" cx="0.977" cy="0.977" r="0.977" transform="translate(9.375 13.525)"/><circle class="c" cx="0.977" cy="0.977" r="0.977" transform="translate(9.375 9.277)"/><circle class="c" cx="0.977" cy="0.977" r="0.977" transform="translate(9.375 17.773)"/></g></g></svg>