<svg xmlns="http://www.w3.org/2000/svg" width="26.5" height="26.5" viewBox="0 0 26.5 26.5"><defs><style>.a{stroke-width:1.5px;}</style></defs><path class="a" d="M28.594,11.462l-8.475-7.9A3.816,3.816,0,0,0,17.353,2.5a4.052,4.052,0,0,0-2.766,1.1l-8.83,8.433a.618.618,0,0,0,0,.933L5.793,13a.716.716,0,0,0,.993,0l8.83-8.433a2.572,2.572,0,0,1,1.667-.7h.071a2.63,2.63,0,0,1,1.7.667l8.511,7.9a2.289,2.289,0,0,1,.745,1.633v9.066a3.072,3.072,0,0,1-3.156,2.966H9.41a3.11,3.11,0,0,1-3.191-3v-6a.691.691,0,0,0-.709-.667h0A.691.691,0,0,0,4.8,17.1v6.033a4.528,4.528,0,0,0,4.645,4.366H25.19a4.469,4.469,0,0,0,4.61-4.333v-9.1A3.7,3.7,0,0,0,28.594,11.462Z" transform="translate(-4.05 -1.744)"/></svg>