<?xml version="1.0" encoding="iso-8859-1"?>
<!-- Generator: Adobe Illustrator 19.0.0, SVG Export Plug-In . SVG Version: 6.00 Build 0)  -->
<svg version="1.1" id="Layer_1" xmlns="http://www.w3.org/2000/svg" xmlns:xlink="http://www.w3.org/1999/xlink" x="0px" y="0px"
	 viewBox="0 0 326.343 326.343" style="enable-background:new 0 0 326.343 326.343;" xml:space="preserve">
<g>
	<g>
		<g>
			<path d="M271.535,274.603c-0.892-16.852-33.704-30.088-50.568-35.796c-0.34-3.304-0.904-6.876-3.096-9.228
				c-2.34-2.512-6.116-3.404-9.564-3.928c-2.396-5.044-7.608-7.616-13.16-6.32c-0.66-3.208-1.596-11.172-2.096-11.732
				c17.416-11.932,33.872-33.28,41.08-59.964c5.088,3.032,10.84,4.276,16.22,0.168c6.592-5.032,6.776-15.432,4.448-22.732
				c-1.644-5.156-5.452-10.172-10.592-12.028c11.372-34.664-0.38-69.328-6.7-75.2c-6.044-5.604-13.98-5.124-20.364-3.524
				c0-0.004,0.004-0.004,0.004-0.012c1.564-2.836,3.12-5.676,3.784-7.08c0.6-1.268,0.284-2.788-0.78-3.704
				c-4.692-4.072-11.88-3.032-18.16-0.796c1.34-2.256,2.192-3.004,2.724-3.144c0.944-0.196,1.748-0.812,2.176-1.672
				c0.428-0.86,0.436-1.876,0.024-2.744c-8.64-18.12-30.612-15.572-42.42-14.208c-18.456,2.14-36.268,10.828-50.428,24.552
				c-2.14-1.132-4.572-1.62-7.152-1.412c-4.428,0.348-8.92,2.772-12.028,6.488c-4.868,5.824-6.8,13.676-8.164,21.288
				c-3.092,17.26-2.536,45.348-1.632,60.952c-1.172,0.384-2.324,1-3.404,1.852c-5.288,4.156-7.308,11.044-7.596,17.508
				c-0.288,6.392,0.964,13.784,7.156,17.072c4.932,2.62,9.54,0.768,13.472-2.22c7.78,26.18,25.86,48.316,43.836,60.824
				c0.328,0.232,0.656,0.428,0.984,0.648c-0.648,0.536-1.504,6.668-1.892,8.888c-0.012-0.004-0.02-0.008-0.032-0.012
				c-3.944-0.292-7.832,0.32-11.372,2.152c-3.048,1.576-4.784,3.32-8.14,4.184c-7.708,1.984-12.196,8.712-12.576,16.412
				c-0.004,0.06,0.024,0.096,0.024,0.152c-19.18,6.252-49.924,18.68-50.744,34.316c-1.04,19.788-2.604,48.432-2.604,48.432
				l3.128,3.308h215.676l3.132-3.308C274.139,323.035,272.576,294.395,271.535,274.603z M196.752,225.471
				c2.928-0.512,5.396,0.728,6.304,3.828c0.428,1.468,1.612,2.12,3.02,2.3c2.628,0.336,6.356,0.744,7.76,3.376
				c0.26,0.484,0.436,1.084,0.572,1.724c-1.224-0.372-2.156-0.644-2.696-0.796c-1.02-0.292-4.008,1.224-4.428,1.952
				c-7.076,12.216-21.932,15.608-35.064,17.1l1.424-2.836c11.184-1.388,21.028-5.9,27.028-12.432l1.436-1.652
				C200.264,234.535,197.892,229.047,196.752,225.471z M81.764,141.387c-1.532-2.224-1.516-5.756-1.448-8.3
				c0.056-2.132,0.28-4.288,0.86-6.348c0.352-1.264,5.132-11.516,7.956-7.616c0.448,0.616,1.02,0.944,1.616,1.14
				c0,0.092,0,0.176,0,0.264c0,6.76,0.808,13.384,2.236,19.808C89.748,143.367,85.492,146.799,81.764,141.387z M94.176,91.463
				c-0.3,0.352-0.54,0.752-0.668,1.228c-1.428,5.376-2.108,9.736-2.44,14.204c-0.8-18.168-0.556-40.632,1.824-53.916
				c1.212-6.76,2.876-13.668,6.804-18.372c2.048-2.448,4.932-4.044,7.708-4.256c1.928-0.152,3.616,0.376,4.98,1.568
				c1.252,1.084,3.144,1.02,4.3-0.176c13.444-13.764,30.68-22.484,48.528-24.552c13.832-1.596,27.8-2.224,34.656,8.204
				c-2.836,2.568-5.04,7.18-7.076,11.824l-0.292,0.656c-0.54,1.22-0.244,2.656,0.74,3.56c0.988,0.92,2.436,1.092,3.612,0.464
				c7.08-3.796,13.344-5.456,17.024-4.648c-0.656,1.22-1.436,2.636-2.216,4.052c-1.56,2.836-3.12,5.676-3.784,7.08
				c-0.548,1.152-0.336,2.524,0.528,3.46c0.864,0.944,2.208,1.26,3.404,0.816c8.016-3.012,16.164-5.12,21.44-0.212
				c4.188,3.892,16.088,36.856,4.604,69.98c-1.1,0.18-2.092,0.52-3,0.964c-5.42-20.86-22.208-36.144-35.852-48.536
				c-1.096-0.996-2.748-1.088-3.948-0.216c-1.2,0.872-1.624,2.472-1.012,3.82c0.852,1.896,1.012,7.908,1.092,11.472
				c-13.236-2.348-38.136-9.616-51.372-31.684c-0.796-1.324-2.428-1.868-3.852-1.3C128.408,51.547,102.564,64.671,94.176,91.463z
				 M97.012,120.531c0-7.812,0.012-13.08,0.992-19.06c0.192-0.328,0.344-0.684,0.408-1.076
				c4.432-27.216,28.808-41.156,41.416-46.632c16.348,24.744,45.904,31.276,58.116,32.948c0.944,0.116,1.864-0.164,2.548-0.804
				c0.692-0.636,1.056-1.54,1.004-2.472c-0.044-0.808-0.064-1.912-0.092-3.172c-0.036-1.688-0.08-3.308-0.148-4.84
				c12.128,11.356,24.852,25.116,28.228,42.528c0.084,0.424,0.264,0.792,0.488,1.132c-0.24,0.732-0.436,1.496-0.544,2.328
				c-0.524,3.984,5.744,3.948,6.264,0c0.424-3.22,4.376-3.136,6.48-2.356c3.908,1.452,6.136,5.56,7.064,9.444
				c0.688,2.868,0.94,6.86,0.128,9.716c-2.352,8.34-10.12,6.044-15.028,2.012c-2.452-2.012-5.7,0.336-5.412,2.676
				c-9.368,39.488-41.74,68.936-64.624,68.936c-5.752,0-13.832-3.324-22.172-9.128C119.676,187.087,97.012,155.615,97.012,120.531z
				 M117.136,230.791c2.272-1.256,4.912-0.516,6.992-1.744c1.912-1.132,3.168-3.076,5.276-4.096c2.216-1.068,4.448-1.384,6.8-1.34
				c-1.256,4.276-3.016,8.52-5.288,12.708l-1.156,2.08c6.18,6.756,16.856,12.656,27.872,14.304v2.6
				c-12.572-2.532-23.756-6.212-32.764-16.096c-0.312-0.344-3.168-3.62-4.828-3.192c-1.188,0.304-4.068,1.068-7.968,2.232
				C112.64,235.139,114.188,232.419,117.136,230.791z M58.64,320.075c0.44-8.1,1.596-29.416,2.42-45.144
				c0.656-12.416,35.62-26.172,58.736-32.356c0.136,0.364,0.328,0.724,0.636,1.064c9.527,10.45,21.552,14.817,34.909,17.585
				c-1.165,1.033-3.224,3.053-4.009,3.611c-1.64,1.16-3.336,2.36-4.912,3.748c-3.156,2.776-5.148,5.8-5.912,8.976
				c-0.528,2.216-0.34,4.236,0.548,5.848c1.24,2.252,3.44,3.204,5.376,4.052c0.448,0.192,0.892,0.38,1.42,0.656
				c-0.26,0.552-0.556,1.104-0.852,1.664c-1.268,2.388-2.84,5.352-1.744,8.556c0.316,0.92,1.176,1.496,2.092,1.496
				c0.236,0,0.476-0.036,0.716-0.12c1.156-0.396,1.768-1.652,1.376-2.808c-0.476-1.392,0.424-3.088,1.464-5.048
				c0.416-0.78,0.828-1.56,1.164-2.336c0.18-0.408,0.656-1.5,0.32-2.728c-0.412-1.5-1.72-2.204-2.144-2.428
				c-0.652-0.348-1.352-0.656-2.052-0.964c-1.476-0.636-2.752-1.192-3.264-2.124c-0.344-0.62-0.388-1.576-0.12-2.68
				c0.548-2.276,2.072-4.524,4.532-6.692c1.4-1.232,2.928-2.312,4.548-3.46c1.004-0.712,2.012-1.428,2.984-2.172
				c0.251-0.192,0.511-0.438,0.756-0.72v54.524H58.64z M160.18,246.763c-9.568-1.136-17.184-4.34-22.676-9.516
				c4.208-8.356,6.572-16.944,7.096-25.572c7.28,4.16,14.124,6.436,19.704,6.436c7.272,0,15.364-2.576,23.444-7.18
				c0.408,8.8,2.656,17.536,6.8,26.024c-5.156,4.684-13.004,7.924-21.912,8.98c-0.704,0.084-3.68,1.564-4.168,2.532l-4.572,9.104
				v-7.692C163.896,247.767,160.312,246.783,160.18,246.763z M163.896,320.071L163.896,320.071v-48.536c0,0-0.012-5.724,6.728-5.36
				c1.348,0.072,2.684,0.488,4.236,1.576c0.804,0.568,2.692,2.092,2.816,4.1c0.084,1.312-0.58,2.672-1.344,4.248
				c-0.58,1.2-1.184,2.444-1.54,3.844c-0.396,1.564-0.34,2.964,0.16,4.16c1.068,2.556,3.516,3.308,5.488,3.912
				c1.076,0.328,2.092,0.644,2.684,1.152c0.808,0.696,1.124,2.02,1.492,3.556c0.436,1.812,0.928,3.864,2.448,5.488
				c0.432,0.464,1.02,0.696,1.612,0.696c0.544,0,1.084-0.196,1.512-0.6c0.892-0.836,0.936-2.232,0.1-3.128
				c-0.72-0.76-1.036-2.084-1.372-3.484c-0.476-1.996-1.02-4.252-2.912-5.884c-1.292-1.108-2.872-1.592-4.268-2.02
				c-1.516-0.468-2.456-0.792-2.704-1.392c-0.068-0.168-0.156-0.568,0.048-1.372c0.244-0.96,0.724-1.948,1.232-2.996
				c0.904-1.864,1.932-3.984,1.776-6.456c-0.168-2.76-1.88-5.476-4.692-7.44c-1.974-1.387-4.02-2.496-5.99-2.822
				c15.008-1.644,31.65-5.517,40.358-18.854c1.528,0.452,5.852,1.996,6.464,2.032c20.536,6.888,46.456,19.224,47.044,30.44
				c0.828,15.728,1.984,37.044,2.424,45.14H163.896z"/>
			<path d="M109.32,37.083c-8.804,1.036-11.664,13.252-12.08,20.568c-0.16,2.848,4.256,2.84,4.42,0.004
				c0.164-2.916,0.684-5.724,1.704-8.472c0.924-2.484,2.828-7.308,5.956-7.68C112.112,41.175,112.144,36.751,109.32,37.083z"/>
			<path d="M237.456,95.423c0.252-3.768,0.564-7.556,0.612-11.336c0.036-2.844-4.388-2.848-4.424,0
				c-0.048,3.776-0.356,7.568-0.612,11.336C232.844,98.263,237.268,98.251,237.456,95.423z"/>
			<path d="M180.86,69.347c1.924,0.768,3.872,1.432,5.868,1.988c2.744,0.764,3.916-3.5,1.176-4.264
				c-1.996-0.556-3.944-1.22-5.868-1.988C179.396,64.031,178.248,68.303,180.86,69.347z"/>
			<path d="M172.088,64.995c2.44,1.476,4.664-2.348,2.232-3.816c-7.204-4.356-13.66-9.708-20.06-15.144
				c-2.156-1.832-5.296,1.28-3.124,3.124C157.82,54.835,164.568,60.443,172.088,64.995z"/>
		</g>
	</g>
</g>
<g>
</g>
<g>
</g>
<g>
</g>
<g>
</g>
<g>
</g>
<g>
</g>
<g>
</g>
<g>
</g>
<g>
</g>
<g>
</g>
<g>
</g>
<g>
</g>
<g>
</g>
<g>
</g>
<g>
</g>
</svg>
